<svg xmlns="http://www.w3.org/2000/svg" width="430" height="180" viewBox="0 0 430 180" role="img" aria-labelledby="title desc">
  <title id="title">Languages used across public repositories</title><desc id="desc">Top programming languages by bytes in public repositories.</desc>
  <style>
    .frame { fill:#0d1117; stroke:#30363d; stroke-width:2; } .label { fill:#8b949e; font:600 11px ui-monospace,SFMono-Regular,Menlo,monospace; letter-spacing:1px; }
    .lang { fill:#f0f6fc; font:13px ui-monospace,SFMono-Regular,Menlo,monospace; } .percent { fill:#8b949e; font:13px ui-monospace,SFMono-Regular,Menlo,monospace; }
    .ring { transform:rotate(-90deg); transform-origin:72px 90px; }
  </style>
  <rect class="frame" x="1" y="1" width="428" height="178" rx="12"/>
  <g class="ring"><circle cx="72" cy="90" r="45" fill="none" stroke="#e34c26" stroke-width="18" stroke-dasharray="243.46 282.74" stroke-dashoffset="-0.00"/><circle cx="72" cy="90" r="45" fill="none" stroke="#f1e05a" stroke-width="18" stroke-dasharray="13.84 282.74" stroke-dashoffset="-243.46"/><circle cx="72" cy="90" r="45" fill="none" stroke="#3572A5" stroke-width="18" stroke-dasharray="12.24 282.74" stroke-dashoffset="-257.29"/><circle cx="72" cy="90" r="45" fill="none" stroke="#663399" stroke-width="18" stroke-dasharray="8.85 282.74" stroke-dashoffset="-269.53"/><circle cx="72" cy="90" r="45" fill="none" stroke="#3178c6" stroke-width="18" stroke-dasharray="4.36 282.74" stroke-dashoffset="-278.38"/></g><text x="72" y="94" text-anchor="middle" class="label">TOP</text><text x="72" y="109" text-anchor="middle" class="label">LANGS</text><circle cx="180" cy="39" r="4" fill="#e34c26"/><text x="193" y="43" class="lang">HTML</text><text x="380" y="43" text-anchor="end" class="percent">86%</text><circle cx="180" cy="64" r="4" fill="#f1e05a"/><text x="193" y="68" class="lang">JavaScript</text><text x="380" y="68" text-anchor="end" class="percent">5%</text><circle cx="180" cy="89" r="4" fill="#3572A5"/><text x="193" y="93" class="lang">Python</text><text x="380" y="93" text-anchor="end" class="percent">4%</text><circle cx="180" cy="114" r="4" fill="#663399"/><text x="193" y="118" class="lang">CSS</text><text x="380" y="118" text-anchor="end" class="percent">3%</text><circle cx="180" cy="139" r="4" fill="#3178c6"/><text x="193" y="143" class="lang">TypeScript</text><text x="380" y="143" text-anchor="end" class="percent">2%</text>
</svg>
