<svg xmlns="http://www.w3.org/2000/svg" width="430" height="180" viewBox="0 0 430 180" role="img" aria-labelledby="title desc">
  <title id="title">Languages used across public repositories</title><desc id="desc">Top programming languages by bytes in public repositories.</desc>
  <style>
    .frame { fill:#0d1117; stroke:#30363d; stroke-width:2; } .label { fill:#8b949e; font:600 11px ui-monospace,SFMono-Regular,Menlo,monospace; letter-spacing:1px; }
    .lang { fill:#f0f6fc; font:13px ui-monospace,SFMono-Regular,Menlo,monospace; } .percent { fill:#8b949e; font:13px ui-monospace,SFMono-Regular,Menlo,monospace; }
    .ring { transform:rotate(-90deg); transform-origin:59px 90px; }
  </style>
  <rect class="frame" x="1" y="1" width="428" height="178" rx="12"/>
  <g class="ring"><circle cx="59" cy="90" r="50" fill="none" stroke="#f34b7d" stroke-width="18" stroke-dasharray="162.71 314.16" stroke-dashoffset="-0.00"/><circle cx="59" cy="90" r="50" fill="none" stroke="#e34c26" stroke-width="18" stroke-dasharray="61.95 314.16" stroke-dashoffset="-162.71"/><circle cx="59" cy="90" r="50" fill="none" stroke="#555555" stroke-width="18" stroke-dasharray="36.73 314.16" stroke-dashoffset="-224.66"/><circle cx="59" cy="90" r="50" fill="none" stroke="#3A4E3A" stroke-width="18" stroke-dasharray="35.38 314.16" stroke-dashoffset="-261.39"/><circle cx="59" cy="90" r="50" fill="none" stroke="#3572A5" stroke-width="18" stroke-dasharray="17.39 314.16" stroke-dashoffset="-296.77"/></g><text x="59" y="94" text-anchor="middle" class="label">TOP</text><text x="59" y="109" text-anchor="middle" class="label">LANGS</text><circle cx="180" cy="39" r="4" fill="#f34b7d"/><text x="193" y="43" class="lang">C++</text><text x="380" y="43" text-anchor="end" class="percent">48%</text><circle cx="180" cy="64" r="4" fill="#e34c26"/><text x="193" y="68" class="lang">HTML</text><text x="380" y="68" text-anchor="end" class="percent">18%</text><circle cx="180" cy="89" r="4" fill="#555555"/><text x="193" y="93" class="lang">C</text><text x="380" y="93" text-anchor="end" class="percent">11%</text><circle cx="180" cy="114" r="4" fill="#3A4E3A"/><text x="193" y="118" class="lang">Cuda</text><text x="380" y="118" text-anchor="end" class="percent">10%</text><circle cx="180" cy="139" r="4" fill="#3572A5"/><text x="193" y="143" class="lang">Python</text><text x="380" y="143" text-anchor="end" class="percent">5%</text>
</svg>
