<svg xmlns="http://www.w3.org/2000/svg" width="430" height="168" viewBox="0 0 430 168" role="img" aria-labelledby="title desc">
  <title id="title">Core technologies</title><desc id="desc">Color-coded technologies used in Kazi's public projects.</desc>
  <style>
    .frame { fill:#0d1117; stroke:#30363d; stroke-width:2; } .heading { fill:#f0f6fc; font:700 15px ui-monospace,SFMono-Regular,Menlo,monospace; }
    .tech { font:600 12px ui-monospace,SFMono-Regular,Menlo,monospace; }
  </style>
  <rect class="frame" x="1" y="1" width="428" height="166" rx="12"/><text x="22" y="27" class="heading">Core Technologies</text><g><rect x="22" y="43" width="82" height="24" rx="6" fill="#8959c8" stroke="#8959c8"/><text x="63.0" y="59" text-anchor="middle" fill="#000000" class="tech">Python</text></g><g><rect x="114" y="43" width="88" height="24" rx="6" fill="#00796b" stroke="#00796b"/><text x="158.0" y="59" text-anchor="middle" fill="#000000" class="tech">FastAPI</text></g><g><rect x="212" y="43" width="64" height="24" rx="6" fill="#c13b6b" stroke="#c13b6b"/><text x="244.0" y="59" text-anchor="middle" fill="#000000" class="tech">C++</text></g><g><rect x="290" y="43" width="70" height="24" rx="6" fill="#4a7658" stroke="#4a7658"/><text x="325.0" y="59" text-anchor="middle" fill="#000000" class="tech">CUDA</text></g><g><rect x="22" y="78" width="74" height="24" rx="6" fill="#6d5ab0" stroke="#6d5ab0"/><text x="59.0" y="94" text-anchor="middle" fill="#000000" class="tech">Vulkan</text></g><g><rect x="106" y="78" width="70" height="24" rx="6" fill="#3fa9b8" stroke="#3fa9b8"/><text x="141.0" y="94" text-anchor="middle" fill="#000000" class="tech">React</text></g><g><rect x="192" y="78" width="96" height="24" rx="6" fill="#245d9a" stroke="#245d9a"/><text x="240.0" y="94" text-anchor="middle" fill="#000000" class="tech">TypeScript</text></g><g><rect x="22" y="113" width="164" height="24" rx="6" fill="#c66a19" stroke="#c66a19"/><text x="104.0" y="129" text-anchor="middle" fill="#000000" class="tech">Cloudflare Workers</text></g>
</svg>
